<svg width="119" height="28" viewBox="0 0 119 28" fill="none" xmlns="http://www.w3.org/2000/svg">
<g filter="url(#filter0_d_1_114)">
<path d="M37.6692 6.90492C39.5304 6.78846 41.3623 7.41233 42.7656 8.64058C42.866 8.72757 42.9958 8.77313 43.1285 8.76803C43.2612 8.76292 43.3871 8.70753 43.4805 8.61309L44.7852 7.30834C44.8356 7.25797 44.8752 7.19793 44.9017 7.13184C44.9282 7.06575 44.941 6.99498 44.9395 6.92379C44.9379 6.8526 44.9219 6.78247 44.8925 6.71763C44.863 6.65278 44.8208 6.59457 44.7682 6.54649C43.5606 5.46616 42.1085 4.69553 40.5369 4.30095C38.9653 3.90638 37.3214 3.8997 35.7466 4.28147C34.1719 4.66324 32.7135 5.42204 31.4971 6.49251C30.2807 7.56299 29.3427 8.91307 28.7639 10.4265C28.1851 11.94 27.9828 13.5714 28.1744 15.1804C28.366 16.7894 28.9458 18.3277 29.8639 19.6629C30.782 20.998 32.0109 22.09 33.4446 22.8449C34.8784 23.5997 36.4742 23.9948 38.0946 23.996C40.5579 24.0034 42.936 23.0947 44.7668 21.4466C44.8192 21.3985 44.8614 21.3404 44.8907 21.2756C44.92 21.2108 44.9359 21.1408 44.9373 21.0697C44.9388 20.9986 44.9258 20.928 44.8991 20.862C44.8725 20.7961 44.8327 20.7363 44.7822 20.6862L43.4775 19.3815C43.3842 19.2874 43.2588 19.2322 43.1265 19.2268C42.9942 19.2214 42.8647 19.2663 42.7642 19.3525C41.9125 20.0941 40.8963 20.6221 39.7999 20.8925C38.7034 21.1629 37.5583 21.168 36.4594 20.9073C35.3606 20.6467 34.3398 20.1278 33.4816 19.3937C32.6234 18.6597 31.9526 17.7316 31.5248 16.6864C31.097 15.6413 30.9245 14.5092 31.0217 13.3841C31.1189 12.259 31.483 11.1732 32.0837 10.2169C32.6844 9.26064 33.5044 8.46134 34.4758 7.88535C35.4472 7.30935 36.5419 6.97325 37.6692 6.90492Z" fill="white"/>
<path d="M21.1909 7.38834C19.855 5.90742 18.1016 4.86619 16.1619 4.40196C14.2222 3.93772 12.1874 4.07229 10.3257 4.7879C8.4641 5.50352 6.86307 6.76658 5.73379 8.41053C4.6045 10.0545 4 12.0021 4 13.9965C4 15.991 4.6045 17.9386 5.73379 19.5825C6.86307 21.2265 8.4641 22.4895 10.3257 23.2052C12.1874 23.9208 14.2222 24.0553 16.1619 23.5911C18.1016 23.1269 19.855 22.0856 21.1909 20.6047V23.1897C21.1909 23.3292 21.2463 23.463 21.3449 23.5616C21.4436 23.6602 21.5773 23.7156 21.7168 23.7156H23.299C23.4385 23.7156 23.5722 23.6602 23.6709 23.5616C23.7695 23.463 23.8249 23.3292 23.8249 23.1897V4.93583C23.8248 4.79644 23.7693 4.6628 23.6707 4.56428C23.5721 4.46577 23.4384 4.41043 23.299 4.41043H21.7183C21.5788 4.41043 21.4451 4.46584 21.3464 4.56446C21.2478 4.66308 21.1924 4.79685 21.1924 4.93632V7.38834H21.1909ZM13.8714 21.2326C12.4402 21.2326 11.0412 20.8082 9.85126 20.0131C8.66131 19.2181 7.73384 18.088 7.18615 16.7658C6.63845 15.4436 6.49512 13.9887 6.77429 12.585C7.05345 11.1814 7.74257 9.89204 8.7545 8.88004C9.76644 7.86803 11.0557 7.17883 12.4594 6.89956C13.863 6.6203 15.3179 6.76353 16.6401 7.31113C17.9624 7.85874 19.0925 8.78613 19.8877 9.97603C20.6829 11.1659 21.1073 12.5649 21.1074 13.996C21.1053 15.9146 20.3423 17.7539 18.9857 19.1105C17.6292 20.4672 15.7899 21.2304 13.8714 21.2326Z" fill="white"/>
<path d="M64.6962 4.93583V7.38835C63.3602 5.9073 61.6066 4.86599 59.6667 4.40172C57.7269 3.93746 55.6918 4.07205 53.83 4.78775C51.9682 5.50344 50.367 6.76663 49.2376 8.41074C48.1082 10.0548 47.5037 12.0026 47.5037 13.9973C47.5037 15.9919 48.1082 17.9397 49.2376 19.5838C50.367 21.2279 51.9682 22.4911 53.83 23.2068C55.6918 23.9225 57.7269 24.0571 59.6667 23.5929C61.6066 23.1286 63.3602 22.0873 64.6962 20.6062V23.1912C64.6962 23.3307 64.7516 23.4645 64.8503 23.5631C64.9489 23.6617 65.0827 23.7171 65.2221 23.7171H66.8013C66.9408 23.7171 67.0746 23.6617 67.1732 23.5631C67.2718 23.4645 67.3272 23.3307 67.3272 23.1912V4.93583C67.3272 4.79635 67.2718 4.66259 67.1732 4.56397C67.0746 4.46534 66.9408 4.40993 66.8013 4.40993H65.2246C65.1554 4.40967 65.0868 4.42308 65.0227 4.44938C64.9586 4.47569 64.9004 4.51437 64.8513 4.56323C64.8022 4.61208 64.7633 4.67014 64.7366 4.73408C64.71 4.79802 64.6963 4.86658 64.6962 4.93583ZM57.3762 21.2326C55.9451 21.2325 54.5461 20.8081 53.3562 20.0129C52.1663 19.2178 51.239 18.0876 50.6913 16.7654C50.1437 15.4432 50.0005 13.9883 50.2797 12.5847C50.5589 11.1811 51.2481 9.89182 52.26 8.87987C53.272 7.86791 54.5613 7.17876 55.9649 6.89953C57.3685 6.62031 58.8234 6.76357 60.1456 7.31119C61.4678 7.85881 62.5979 8.7862 63.3931 9.97608C64.1882 11.166 64.6127 12.5649 64.6128 13.996C64.6106 15.9146 63.8475 17.7541 62.4909 19.1107C61.1342 20.4674 59.2948 21.2305 57.3762 21.2326Z" fill="white"/>
<path d="M104.37 23.7821C102.09 23.78 99.8808 22.9874 98.1191 21.5392C96.3575 20.091 95.1524 18.0769 94.7092 15.8399C94.266 13.6029 94.6121 11.2814 95.6885 9.27097C96.7649 7.26051 98.505 5.68542 100.612 4.81403C102.72 3.94264 105.064 3.82886 107.246 4.49205C109.428 5.15525 111.313 6.55441 112.579 8.45117C113.845 10.3479 114.414 12.625 114.189 14.8944C113.965 17.1638 112.961 19.2852 111.348 20.8972C110.432 21.8138 109.344 22.5406 108.147 23.0356C106.949 23.5307 105.666 23.7844 104.37 23.7821ZM104.37 6.68546C102.696 6.68495 101.073 7.26522 99.7778 8.32736C98.483 9.38951 97.5965 10.8678 97.2695 12.5103C96.9425 14.1528 97.1952 15.8579 97.9846 17.335C98.7739 18.812 100.051 19.9697 101.598 20.6106C103.146 21.2515 104.867 21.3361 106.47 20.8498C108.072 20.3636 109.457 19.3366 110.387 17.944C111.317 16.5514 111.736 14.8793 111.571 13.2126C111.407 11.546 110.67 9.98794 109.485 8.80404C108.815 8.13011 108.018 7.59574 107.14 7.23183C106.262 6.86792 105.321 6.68171 104.37 6.68396V6.68546Z" fill="white"/>
<path d="M99.7334 10.5932C98.9501 11.7092 98.5857 13.0657 98.7044 14.424C98.823 15.7823 99.4171 17.0551 100.382 18.0183C101.347 18.9816 102.621 19.5735 103.979 19.6898C105.338 19.8061 106.694 19.4393 107.808 18.6541C107.331 16.699 106.326 14.9129 104.901 13.4911C103.477 12.0693 101.689 11.0668 99.7334 10.5932Z" fill="white"/>
<path d="M105.818 11.3795C106.362 11.9232 107.048 12.303 107.798 12.4757C108.548 12.6484 109.331 12.607 110.059 12.3563C109.723 11.1635 109.015 10.1094 108.037 9.34811C107.06 8.58686 105.864 8.15849 104.625 8.12567C104.575 8.72214 104.656 9.32236 104.862 9.8844C105.068 10.4464 105.394 10.9567 105.818 11.3795Z" fill="white"/>
<path d="M72.9017 23.7681C73.8956 23.7681 74.7013 22.9624 74.7013 21.9685C74.7013 20.9746 73.8956 20.1688 72.9017 20.1688C71.9078 20.1688 71.1021 20.9746 71.1021 21.9685C71.1021 22.9624 71.9078 23.7681 72.9017 23.7681Z" fill="white"/>
<path d="M90.3004 8.52662L88.8691 9.30396C88.7387 9.3757 88.5864 9.39685 88.4413 9.36337C88.2963 9.32989 88.1686 9.24414 88.0828 9.1225C87.5665 8.34878 86.8936 7.69194 86.1077 7.19438C85.4941 6.84733 84.801 6.66511 84.0961 6.66548C83.3118 6.6359 82.5411 6.87701 81.9135 7.34835C81.6435 7.53902 81.4236 7.79217 81.2726 8.08621C81.1215 8.38026 81.0439 8.70647 81.0462 9.03702C81.0462 9.97283 82.069 10.8567 83.5867 11.428L85.6748 12.2099C87.0883 12.6584 88.3689 13.4496 89.4025 14.5129C90.1969 15.4387 90.6183 16.6269 90.5848 17.8463C90.605 18.6715 90.443 19.4911 90.1103 20.2466C89.7777 21.0022 89.2825 21.6751 88.6602 22.2174C87.3365 23.389 85.6155 24.0111 83.8486 23.9566C82.2202 24.0193 80.6234 23.4947 79.3495 22.4784C78.3073 21.6119 77.5844 20.4222 77.2954 19.098C77.2803 19.0173 77.2837 18.9343 77.3054 18.8551C77.3271 18.7759 77.3665 18.7028 77.4207 18.6411C77.4749 18.5794 77.5425 18.5309 77.6182 18.4992C77.6939 18.4675 77.7759 18.4535 77.8578 18.4582H79.6575C79.7713 18.4552 79.8834 18.4862 79.9795 18.5473C80.0756 18.6084 80.1512 18.6968 80.1969 18.8011C80.3773 19.2243 80.5999 19.6282 80.8612 20.0068C81.2485 20.4479 81.7273 20.7992 82.2642 21.0364C82.8011 21.2736 83.3832 21.3908 83.9701 21.3801C85.0096 21.3645 86.0135 20.9989 86.8196 20.3423C87.1555 20.0591 87.4279 19.7081 87.6188 19.3124C87.8097 18.9166 87.9148 18.485 87.9273 18.0457C87.9312 17.697 87.8738 17.3503 87.7579 17.0214C87.6404 16.7036 87.4606 16.4125 87.229 16.1651C86.956 15.8779 86.6434 15.6312 86.3006 15.4323C85.8671 15.1798 85.4141 14.9625 84.9459 14.7824L82.9268 14.0125C80.0614 12.9033 78.1048 11.2816 78.1048 9.145C78.1004 8.44342 78.2614 7.75068 78.5746 7.12292C78.8879 6.49515 79.3447 5.95003 79.9079 5.53171C81.1828 4.52938 82.7707 4.00957 84.3915 4.064C85.6506 4.11335 86.8759 4.48564 87.9496 5.14511C89.0233 5.80457 89.9094 6.72906 90.5228 7.82975C90.5552 7.88986 90.5751 7.95587 90.5814 8.02385C90.5877 8.09182 90.5803 8.16037 90.5595 8.22541C90.5387 8.29044 90.5051 8.35063 90.4606 8.40238C90.4161 8.45413 90.3616 8.49638 90.3004 8.52662Z" fill="white"/>
</g>
<defs>
<filter id="filter0_d_1_114" x="0" y="0" width="118.237" height="27.9961" filterUnits="userSpaceOnUse" color-interpolation-filters="sRGB">
<feFlood flood-opacity="0" result="BackgroundImageFix"/>
<feColorMatrix in="SourceAlpha" type="matrix" values="0 0 0 0 0 0 0 0 0 0 0 0 0 0 0 0 0 0 127 0" result="hardAlpha"/>
<feOffset/>
<feGaussianBlur stdDeviation="2"/>
<feComposite in2="hardAlpha" operator="out"/>
<feColorMatrix type="matrix" values="0 0 0 0 0 0 0 0 0 0 0 0 0 0 0 0 0 0 0.25 0"/>
<feBlend mode="normal" in2="BackgroundImageFix" result="effect1_dropShadow_1_114"/>
<feBlend mode="normal" in="SourceGraphic" in2="effect1_dropShadow_1_114" result="shape"/>
</filter>
</defs>
</svg>
